<svg width="3603" height="992" viewBox="0 0 3603 992" fill="none" xmlns="http://www.w3.org/2000/svg">
<path d="M569 510L477 662L665.5 992H857L1331 167.5H1151L763.5 842L569 510Z" fill="url(#paint0_linear_61_7)"/>
<path d="M762 482L854 330L665.5 0H474L0 824.5H180L567.5 150L762 482Z" fill="url(#paint1_linear_61_7)"/>
<path d="M1831.5 344L2031.5 643.5H2041V344H2084V700H2025L1825 400.5H1815V700H1772.5V344H1831.5ZM2404.03 610.5C2397.03 639.833 2382.7 663.167 2361.03 680.5C2339.7 697.5 2310.86 706 2274.53 706C2229.86 706 2196.53 693.333 2174.53 668C2152.86 642.333 2142.03 608.833 2142.03 567.5C2142.03 527.5 2152.86 495.333 2174.53 471C2196.53 446.333 2229.86 434 2274.53 434C2315.86 434 2347.53 444.5 2369.53 465.5C2391.53 486.5 2403.86 514.333 2406.53 549L2407.53 557H2184.53C2184.2 559.333 2184.03 563 2184.03 568C2184.03 598.333 2191.53 622.833 2206.53 641.5C2221.53 659.833 2244.2 669 2274.53 669C2296.2 669 2314.2 663.833 2328.53 653.5C2342.86 643.167 2353.2 628.833 2359.53 610.5H2404.03ZM2361.53 530C2355.86 511 2345.53 496 2330.53 485C2315.86 473.667 2297.2 468 2274.53 468C2251.53 468 2232.86 473.667 2218.53 485C2204.53 496 2194.7 511 2189.03 530H2361.53ZM2558.96 706C2524.3 706 2498.3 696.833 2480.96 678.5C2463.96 659.833 2455.46 636.333 2455.46 608V440H2495.46V601C2495.46 620 2501.8 636.167 2514.46 649.5C2527.13 662.5 2546.13 669 2571.46 669C2600.13 669 2622.3 660 2637.96 642C2653.96 624 2661.96 600.833 2661.96 572.5V440H2701.96V700H2662.96V639H2659.46C2651.13 660 2638.46 676.5 2621.46 688.5C2604.8 700.167 2583.96 706 2558.96 706ZM2741.85 477V440H2848.85V477H2808.85V350H2848.85V440H2941.35V477H2848.85V633.5C2848.85 642.833 2851.35 650.167 2856.35 655.5C2861.68 660.5 2868.85 663 2877.85 663H2941.35V700H2872.85C2852.51 700 2836.68 694.833 2825.35 684.5C2814.35 673.833 2808.85 659.667 2808.85 642V477H2741.85ZM3023.3 440V506H3025.8C3034.13 485.333 3046.63 469.167 3063.3 457.5C3080.3 445.833 3101.3 440 3126.3 440H3180.8V477H3114.3C3085.3 477 3062.8 485.833 3046.8 503.5C3031.13 520.833 3023.3 543.333 3023.3 571V700H2983.3V440H3023.3ZM3474.6 700H3437.1C3415.43 700 3404.6 691 3404.6 673V626H3402.1C3386.1 679.333 3353.27 706 3303.6 706C3284.27 706 3267.1 702 3252.1 694C3237.43 686 3225.93 675 3217.6 661C3209.27 647 3205.1 631.167 3205.1 613.5C3205.1 598.167 3208.77 584.167 3216.1 571.5C3223.77 558.5 3234.77 548.167 3249.1 540.5C3263.77 532.833 3280.77 529 3300.1 529H3404.6V473H3243.6V440H3412.1C3433.77 440 3444.6 449 3444.6 467V667H3474.6V700ZM3247.6 610.5C3247.6 628.167 3254.1 642.833 3267.1 654.5C3280.1 666.167 3296.27 672 3315.6 672C3343.6 672 3364.93 661.667 3379.6 641C3394.27 620.333 3402.43 592 3404.1 556H3304.6C3292.6 556 3282.27 558.667 3273.6 564C3265.27 569.333 3258.77 576.167 3254.1 584.5C3249.77 592.833 3247.6 601.5 3247.6 610.5ZM3566.75 344V700H3526.75V344H3566.75Z" fill="white"/>
<defs>
<linearGradient id="paint0_linear_61_7" x1="904" y1="167.5" x2="904" y2="854.583" gradientUnits="userSpaceOnUse">
<stop stop-color="#FE5A19"/>
<stop offset="1" stop-color="#FF9B15"/>
</linearGradient>
<linearGradient id="paint1_linear_61_7" x1="427" y1="824.5" x2="427" y2="137.417" gradientUnits="userSpaceOnUse">
<stop stop-color="#FE5A19"/>
<stop offset="1" stop-color="#FF9B15"/>
</linearGradient>
</defs>
</svg>
