<svg width="3180" height="992" viewBox="0 0 3180 992" fill="none" xmlns="http://www.w3.org/2000/svg">
<path d="M569 510L477 662L665.5 992H857L1331 167.5H1151L763.5 842L569 510Z" fill="white"/>
<path d="M762 482L854 330L665.5 0H474L0 824.5H180L567.5 150L762 482Z" fill="white"/>
<path d="M1981 636H1944.6L1798.2 414V636H1761.8V356.8H1798.2L1944.6 578.4V356.8H1981V636ZM2243.05 518C2243.05 524.933 2242.65 532.267 2241.85 540H2066.65C2067.98 561.6 2075.32 578.533 2088.65 590.8C2102.25 602.8 2118.65 608.8 2137.85 608.8C2153.58 608.8 2166.65 605.2 2177.05 598C2187.72 590.533 2195.18 580.667 2199.45 568.4H2238.65C2232.78 589.467 2221.05 606.667 2203.45 620C2185.85 633.067 2163.98 639.6 2137.85 639.6C2117.05 639.6 2098.38 634.933 2081.85 625.6C2065.58 616.267 2052.78 603.067 2043.45 586C2034.12 568.667 2029.45 548.667 2029.45 526C2029.45 503.333 2033.98 483.467 2043.05 466.4C2052.12 449.333 2064.78 436.267 2081.05 427.2C2097.58 417.867 2116.52 413.2 2137.85 413.2C2158.65 413.2 2177.05 417.733 2193.05 426.8C2209.05 435.867 2221.32 448.4 2229.85 464.4C2238.65 480.133 2243.05 498 2243.05 518ZM2205.45 510.4C2205.45 496.533 2202.38 484.667 2196.25 474.8C2190.12 464.667 2181.72 457.067 2171.05 452C2160.65 446.667 2149.05 444 2136.25 444C2117.85 444 2102.12 449.867 2089.05 461.6C2076.25 473.333 2068.92 489.6 2067.05 510.4H2205.45ZM2485.5 416.8V636H2449.1V603.6C2442.16 614.8 2432.43 623.6 2419.9 630C2407.63 636.133 2394.03 639.2 2379.1 639.2C2362.03 639.2 2346.7 635.733 2333.1 628.8C2319.5 621.6 2308.7 610.933 2300.7 596.8C2292.96 582.667 2289.1 565.467 2289.1 545.2V416.8H2325.1V540.4C2325.1 562 2330.56 578.667 2341.5 590.4C2352.43 601.867 2367.36 607.6 2386.3 607.6C2405.76 607.6 2421.1 601.6 2432.3 589.6C2443.5 577.6 2449.1 560.133 2449.1 537.2V416.8H2485.5ZM2591.36 446.8V576C2591.36 586.667 2593.62 594.267 2598.16 598.8C2602.69 603.067 2610.56 605.2 2621.76 605.2H2648.56V636H2615.76C2595.49 636 2580.29 631.333 2570.16 622C2560.02 612.667 2554.96 597.333 2554.96 576V446.8H2526.56V416.8H2554.96V361.6H2591.36V416.8H2648.56V446.8H2591.36ZM2729.06 452.4C2735.46 439.867 2744.53 430.133 2756.26 423.2C2768.26 416.267 2782.79 412.8 2799.86 412.8V450.4H2790.26C2749.46 450.4 2729.06 472.533 2729.06 516.8V636H2692.66V416.8H2729.06V452.4ZM2828.28 525.6C2828.28 503.2 2832.81 483.6 2841.88 466.8C2850.94 449.733 2863.34 436.533 2879.08 427.2C2895.08 417.867 2912.81 413.2 2932.28 413.2C2951.48 413.2 2968.14 417.333 2982.28 425.6C2996.41 433.867 3006.94 444.267 3013.88 456.8V416.8H3050.68V636H3013.88V595.2C3006.68 608 2995.88 618.667 2981.48 627.2C2967.34 635.467 2950.81 639.6 2931.88 639.6C2912.41 639.6 2894.81 634.8 2879.08 625.2C2863.34 615.6 2850.94 602.133 2841.88 584.8C2832.81 567.467 2828.28 547.733 2828.28 525.6ZM3013.88 526C3013.88 509.467 3010.54 495.067 3003.88 482.8C2997.21 470.533 2988.14 461.2 2976.68 454.8C2965.48 448.133 2953.08 444.8 2939.48 444.8C2925.88 444.8 2913.48 448 2902.28 454.4C2891.08 460.8 2882.14 470.133 2875.48 482.4C2868.81 494.667 2865.48 509.067 2865.48 525.6C2865.48 542.4 2868.81 557.067 2875.48 569.6C2882.14 581.867 2891.08 591.333 2902.28 598C2913.48 604.4 2925.88 607.6 2939.48 607.6C2953.08 607.6 2965.48 604.4 2976.68 598C2988.14 591.333 2997.21 581.867 3003.88 569.6C3010.54 557.067 3013.88 542.533 3013.88 526ZM3148.59 340V636H3112.19V340H3148.59Z" fill="white"/>
</svg>
