<svg width="3602" height="992" viewBox="0 0 3602 992" fill="none" xmlns="http://www.w3.org/2000/svg">
<path d="M569 510L477 662L665.5 992H857L1331 167.5H1151L763.5 842L569 510Z" fill="url(#paint0_linear_61_12)"/>
<path d="M762 482L854 330L665.5 0H474L0 824.5H180L567.5 150L762 482Z" fill="url(#paint1_linear_61_12)"/>
<path d="M1755 376H1787.4L1945.4 595.2V376H1981.4V656H1948.2L1791 437.6V656H1755V376ZM2056.42 521.2C2058.42 586 2096.82 630.4 2160.42 630.4C2204.02 630.4 2246.82 610 2263.62 551.6L2295.62 566C2275.22 636.4 2217.62 662.4 2160.42 662.4C2078.82 662.4 2021.22 606 2021.22 516C2021.22 426 2078.82 369.6 2160.42 369.6C2247.62 369.6 2298.82 424.4 2295.62 521.2H2056.42ZM2058.42 489.2H2260.02C2255.22 441.6 2227.22 401.6 2160.42 401.6C2104.42 401.6 2067.62 436.4 2058.42 489.2ZM2444.27 662.4C2363.47 662.4 2331.47 608 2331.47 537.2V376.4H2366.67V527.6C2366.67 602.8 2398.27 630.4 2447.07 630.4C2519.87 630.4 2545.87 568.8 2546.27 511.2L2547.47 376H2581.87V656H2551.47L2549.07 591.6H2547.87C2545.87 609.2 2524.27 662.4 2444.27 662.4ZM2838.8 376V409.2H2742.4V656H2706.4V409.2H2610V376H2838.8ZM3032.32 594.4C3032.32 569.6 3022.72 538 2974.32 538H2902.72V656H2866.72V376H2902.72L2992.72 376.4C3051.52 376.8 3086.32 408.4 3086.32 456C3086.32 492.4 3066.32 516.8 3032.72 526.4C3063.12 544.8 3066.32 574.4 3066.32 608.4C3066.32 620 3066.32 628 3090.32 628.8L3101.12 629.2V656H3032.32V594.4ZM2902.72 506.8H2986.32C3032.32 506.8 3049.52 489.2 3049.52 458.8C3049.52 426.4 3029.92 407.6 2984.32 407.6H2902.72V506.8ZM3316.02 656L3312.02 599.2V545.6V543.6L3312.42 598.4L3312.02 599.2C3293.62 636 3240.82 662 3199.22 662C3156.42 662 3113.22 634.4 3113.22 583.6C3113.22 547.2 3138.82 514 3180.42 498.8C3217.22 485.6 3276.82 477.6 3311.62 477.6L3312.02 503.2H3311.62V475.6C3311.62 457.6 3310.42 401.6 3232.42 401.6C3164.82 401.6 3154.02 450.8 3148.42 475.2L3113.62 467.6C3118.02 440.4 3140.42 369.6 3234.02 369.6C3312.42 369.6 3347.62 418.4 3347.62 484.4V599.2C3347.62 617.2 3347.62 624.8 3371.62 624.8L3390.42 625.2V656H3316.02ZM3150.02 584.4C3150.02 604 3159.62 627.6 3199.22 627.6C3254.42 627.6 3307.62 582.8 3312.02 545.6L3311.62 503.2C3290.82 504.4 3226.02 517.2 3190.42 530.4C3158.02 542.4 3150.02 566.8 3150.02 584.4ZM3414.38 376H3450.38V622H3601.18V656H3414.38V376Z" fill="white"/>
<defs>
<linearGradient id="paint0_linear_61_12" x1="904" y1="167.5" x2="904" y2="854.583" gradientUnits="userSpaceOnUse">
<stop stop-color="#FE5A19"/>
<stop offset="1" stop-color="#FF9B15"/>
</linearGradient>
<linearGradient id="paint1_linear_61_12" x1="427" y1="824.5" x2="427" y2="137.417" gradientUnits="userSpaceOnUse">
<stop stop-color="#FE5A19"/>
<stop offset="1" stop-color="#FF9B15"/>
</linearGradient>
</defs>
</svg>
