<svg width="3624" height="992" viewBox="0 0 3624 992" fill="none" xmlns="http://www.w3.org/2000/svg">
<path d="M569 510L477 662L665.5 992H857L1331 167.5H1151L763.5 842L569 510Z" fill="url(#paint0_linear_61_6)"/>
<path d="M762 482L854 330L665.5 0H474L0 824.5H180L567.5 150L762 482Z" fill="url(#paint1_linear_61_6)"/>
<path d="M1784 666V301H1864L2049.5 622H2065.5L2055.5 631V301H2102.5V666H2021.5L1836 345H1820L1830 336V666H1784ZM2314.82 675C2291.48 675 2271.32 671 2254.32 663C2237.32 655 2223.48 644.5 2212.82 631.5C2202.15 618.167 2194.15 603.333 2188.82 587C2183.82 570.667 2181.32 554 2181.32 537V528C2181.32 510.667 2183.82 493.833 2188.82 477.5C2194.15 461.167 2202.15 446.5 2212.82 433.5C2223.48 420.167 2236.98 409.667 2253.32 402C2269.98 394 2289.48 390 2311.82 390C2340.82 390 2364.65 396.333 2383.32 409C2402.32 421.333 2416.32 437.333 2425.32 457C2434.65 476.667 2439.32 497.667 2439.32 520V541.5H2202.32V505.5H2404.32L2393.32 525C2393.32 506 2390.32 489.667 2384.32 476C2378.32 462 2369.32 451.167 2357.32 443.5C2345.32 435.833 2330.15 432 2311.82 432C2292.82 432 2276.98 436.333 2264.32 445C2251.98 453.667 2242.65 465.5 2236.32 480.5C2230.32 495.5 2227.32 512.833 2227.32 532.5C2227.32 551.5 2230.32 568.667 2236.32 584C2242.65 599 2252.32 611 2265.32 620C2278.32 628.667 2294.82 633 2314.82 633C2335.82 633 2352.82 628.333 2365.82 619C2379.15 609.667 2387.15 598.833 2389.82 586.5H2434.82C2431.15 604.833 2423.82 620.667 2412.82 634C2401.82 647.333 2387.98 657.5 2371.32 664.5C2354.65 671.5 2335.82 675 2314.82 675ZM2599.97 674C2568.3 674 2543.97 663.667 2526.97 643C2509.97 622.333 2501.47 592.5 2501.47 553.5V398.5H2549.47V563C2549.47 584 2555.14 600.5 2566.47 612.5C2577.8 624.167 2593.14 630 2612.47 630C2632.47 630 2648.8 623.667 2661.47 611C2674.14 598 2680.47 580.333 2680.47 558V398.5H2728.47V666H2690.47V551.5H2696.47C2696.47 577.833 2692.97 600.167 2685.97 618.5C2678.97 636.5 2668.47 650.333 2654.47 660C2640.8 669.333 2623.3 674 2601.97 674H2599.97ZM2925.43 669C2905.43 669 2888.1 666.167 2873.43 660.5C2859.1 654.833 2847.93 645.167 2839.93 631.5C2832.27 617.5 2828.43 598.667 2828.43 575V318H2874.43V581C2874.43 595.333 2878.27 606.5 2885.93 614.5C2893.93 622.167 2905.1 626 2919.43 626H2966.43V669H2925.43ZM2782.43 435V399H2966.43V435H2782.43ZM3034.32 666V399H3072.32V509H3070.32C3070.32 470 3078.82 441.5 3095.82 423.5C3113.16 405.167 3138.99 396 3173.32 396H3182.32V439H3165.32C3138.66 439 3118.16 446.167 3103.82 460.5C3089.49 474.5 3082.32 494.833 3082.32 521.5V666H3034.32ZM3399.93 666V586H3391.93V493.5C3391.93 475.167 3387.09 461.333 3377.43 452C3368.09 442.667 3354.26 438 3335.93 438C3325.59 438 3314.93 438.167 3303.93 438.5C3292.93 438.833 3282.43 439.167 3272.43 439.5C3262.43 439.833 3253.76 440.333 3246.43 441V399C3253.76 398.333 3261.43 397.833 3269.43 397.5C3277.76 396.833 3286.26 396.5 3294.93 396.5C3303.59 396.167 3311.93 396 3319.93 396C3347.26 396 3369.59 399.333 3386.93 406C3404.26 412.333 3417.09 422.833 3425.43 437.5C3433.76 452.167 3437.93 472 3437.93 497V666H3399.93ZM3312.43 673C3292.43 673 3275.09 669.667 3260.43 663C3246.09 656 3234.93 646 3226.93 633C3219.26 620 3215.43 604.333 3215.43 586C3215.43 567 3219.59 551.167 3227.93 538.5C3236.59 525.833 3249.09 516.333 3265.43 510C3281.76 503.333 3301.43 500 3324.43 500H3396.93V536H3322.43C3303.09 536 3288.26 540.667 3277.93 550C3267.59 559.333 3262.43 571.333 3262.43 586C3262.43 600.667 3267.59 612.5 3277.93 621.5C3288.26 630.5 3303.09 635 3322.43 635C3333.76 635 3344.59 633 3354.93 629C3365.26 624.667 3373.76 617.667 3380.43 608C3387.43 598 3391.26 584.333 3391.93 567L3404.93 586C3403.26 605 3398.59 621 3390.93 634C3383.59 646.667 3373.26 656.333 3359.93 663C3346.93 669.667 3331.09 673 3312.43 673ZM3529.02 666V301H3577.02V666H3529.02ZM3492.02 339V301H3577.02V339H3492.02Z" fill="white"/>
<defs>
<linearGradient id="paint0_linear_61_6" x1="904" y1="167.5" x2="904" y2="854.583" gradientUnits="userSpaceOnUse">
<stop stop-color="#FE5A19"/>
<stop offset="1" stop-color="#FF9B15"/>
</linearGradient>
<linearGradient id="paint1_linear_61_6" x1="427" y1="824.5" x2="427" y2="137.417" gradientUnits="userSpaceOnUse">
<stop stop-color="#FE5A19"/>
<stop offset="1" stop-color="#FF9B15"/>
</linearGradient>
</defs>
</svg>
